<?xml version="1.0" encoding="UTF-8"?>
<svg id="Layer_1" xmlns="http://www.w3.org/2000/svg" version="1.1" viewBox="0 0 1976 1416">
  <!-- Generator: Adobe Illustrator 29.5.1, SVG Export Plug-In . SVG Version: 2.1.0 Build 141)  -->
  <defs>
    <style>
      .st0 {
        fill: #0e0e0e;
      }
    </style>
  </defs>
  <path class="st0" d="M1964.4,958.1c-7.8-9.3-13-8.9-21.4-14.6-3.9-2.7-3.9-5.9-10.8-7.2-7-1.3-9.6,1.8-13.8,1.8-4.1,0-6.9-3.3-13.8-1.8-4.6.9-11.6,8.3-13.2,8.4-1.2,0-7.1-2.6-10-2.7-6.8,0-12.9,4.4-16.1,10-2.1.6-3.9-2.2-6.1-2.7-9-2.1-15.9,4.2-21.8,9.8-1.3-4-10.3-3.6-13.9-2.9-6.2,1-8,7.9-12.5,8.6-3,.5-6.1-2.8-10.4-2.5-4.6.3-11.8,3.8-15.6,6.5-1,.7-1.3,2.8-2.7,3.3-3.1,1.1-12-2.4-19.1.9-3.8,1.8-6.5,9.4-8,10.2-4.6,2.5-17.9,2.4-23.7,6.1-4.5,2.9-7.2,14-13.9,18.1-6.1,3.8-11.6,2.6-16.5,4.5-2.8,1.2-3.3,3.9-5,5.3-2.2,1.8-8.5,4.5-11.6,6.2-30.5,16.4-63,31.3-93.4,46.6-2.1,1.1-15.2,9.5-16.3,8.2l.9-36.3c-3.8-20.9-8.3-45.5-19-64-1.1-2-4.1-3.6-4.7-5.3-1.6-5.5.9-10.3-4.7-16.3-1.8-1.9-4.3-1.6-6-3-1.7-1.3-2-4-3.4-5.6-4.2-4.5-10.9-9.5-15.8-13.5-9.4-7.7-46.1-34.9-56-36.8-4.3-.8-10.3.7-13.8-3.2-1.8-2.1,1.7-1.7,2.3-4.7,2.1-11.5-3.1-34-18.7-29.4-.9-3.4-4.2-4.8-6-7.6-5.3-8.3-5.9-23-19.1-21.4,13.1-18.8,19.3-42,20.2-64.8.5-.8,8.5-3.3,10.1-4.2,31.6-17.6,58.5-38.7,77.9-70.3,10-16.3,13-48.2,5.1-65.5-7-15.3-12.5-25.5-23.9-38.1-25.8-28.6-56.9-43.6-93.1-56.9-49.9-18.2-98.2-22.5-150.8-27.2-6.5-.6-14.9-3.1-21-3.1-7.3,0-17.3,2.5-25,3.1-74.5,5.2-150.7,12.3-217.1,48.9-9.8,3.3-17.7,9.2-27.4,13.1-.3-4.6-1.2-9.7-2.3-14.2-3-11.7-5.8-19.9-7.3-31.9-.7-5.9-3.4-13.9-10-14.8-13.4-1.8-15.9,8.2-14.5,19.5.5,3.6,2.9,7.1,3.7,11.3,3.2,15.3,3.1,31.4,6.2,46.7-2.1,3.6-4,7.2-6,10.8-4.4,8-10.8,16.7-14.9,25.4-2.5,5.3-4.3,11.8-6.1,17.4l-5.7-25.8c-6.2-7.6-4.7-15.5-7.1-22.9-4.3-13.9-26.4-35.1-40.9-38.1-21.7-4.4-50.7,5-69,15.7-21.6,12.6-32.9,20.6-42,44.8-1.6,4.2-3.8,10-4.8,14.2-1.6,6.7-1.1,17-2.7,22.3-.5,1.7-8.7,8.2-10.3,14.7-3.8,14.6,4.2,22,9,34,1.4,3.5,1.5,8.2,3.2,11.8.6,1.3,2.4,1.2,2.4,1.8,0,.9-5.5,16-6,16.8-.9,1.3-2.8,1-3.8,2-1.5,1.4-7.2,8.7-8.3,9.2-2.9,1.4-7-.6-10.4,1.6-1.1.7-1.2,2.5-2.3,2.9-2.8.8-8,.4-11.3,2,.6-18.8-.8-37.8,0-56.5.2-4.9,1.7-11,2-16,3.6-63.2,8.9-126.8,11-190,.9-29.1,4.5-69.7-7.5-96.4-2.2-5-7.7-9.7-8.9-13.1-1.3-3.4-.3-7.4-3.6-10.4l-25.8-13.7c1.6-15.9-13.4-26.4-26.1-15.8.3-4-2.7-8.1-5-11.2-5.9-7.9-13-10.3-17.7-15-3-3-4.3-12.1-11.5-12.8-4.7-6.3-17.3-1.3-24.1-2.9-.9-.2-1.5-3.7-3.1-5.1-3.9-3.5-20.7-6.1-26.1-6-2.7,0-10.1,3.9-12.4,5.6-3.9,2.9-2.6,7.1-10.3,4.2-6.3-2.4-5-11.3-9.1-16.5-5.4-6.8-33.5-16.5-42.5-19-6.2-1.7-12.9-1.5-19.2-2.3,2.2-3.1,6.9-.6,10.2-1.2,6.4-1.2,21.2-18.6,24.6-24.5,3.6-6.2,5.8-14.4,9.7-20.3,1.5-2.3,3.9-2.9,5.6-5.4,1.9-2.6,3.1-6.5,2.8-9.7.4-.4,7.6,2.4,11.3,0,2.8-1.8,1.5-21.1,1.7-25.6.3-8.3,1.6-16.5,1-25-.9-12.3-6.6-19.6-9.9-31,3.5-12.2,9.8-23.5,7.7-36.7-.1-.8-2.7-8.2-3-8.5-2-2.1-13-4-14.5-5.5-.7-.7-1.1-4.6-2.6-6.5-7.8-9.5-20.8-14.7-29.9-22-3.7-3-24.2-10.5-29.3-11.2-8.9-1.3-19.7-.5-28.8-1.2-2.2-.7-6.2-7.9-7.7-9.3-9.3-8.7-30.8-5.2-42.5-4.5-10.6.6-22,.9-32.9,2-11.1,1.1-37.6,14.8-46.7,22-17.2,13.7-53.3,58-55.7,79.6-.6,5.7.7,12.4-.2,17.8-.4,2.6-2.3,4.4-2.9,7.1-.9,4.3-.2,11.5-1.3,15.7-.5,2-2.7,2.9-2.8,6.2-.3,5.2,2.9,5,3.1,6.9.4,3.4-.4,12.5-1.1,16-1.4,6.7-8,13.7-5.2,20.4,1.6,3.9,3.4,9,4.1,13.9,1.1,7.8.1,12.6-1.8,20.2-9.6-.6-20-4.5-29.3-.8-13.6,5.4-34.7,21-46.3,30.2-.8.7-1.1,2.3-2.9,3.6-6.8,4.8-19,2.6-17.4,13.1-18.1.5-36.3-.3-54.5-1-22.3-.8-35.6,1-57,7.9l-20.4,10.1v1123h1441c-1.8-5.4.4-5.9,1.9-9.6,5.1-13,9.2-27.7,9.1-41.9,0-6.2-9-11.7-9.9-14.1-.8-2.3,0-6.8-.3-9.7-.3-2.6-2-5.6-1.9-8.1.4-6.6,10.1-8.5,12.2-14.8,1.4-4.4.1-8.4,1.8-12.7l10,13.5c3.7,1.8,6,5.7,9.1,7.9,5.3,3.8,12.8,7.5,19.5,7.6,27.7.3,49.8-6.3,76.2-13.8,15.5-4.4,26.2-6.8,37.2-19.8,3.1-3.7,6.1-9.9,9-13,9.1-9.6,25.2-12.8,25.1-28.9,0-1.5-1-7.2-1.5-8.6-.7-1.9-2.5-2.8-3-4-1.4-3,2.7-10.8,3.4-14.5,2.1-10.6,5.5-31.3,6.1-41.9.8-15-4.5-17.1-6-28.1-1.4-10.8.9-23.1-3.6-33.5l27.3-13.7c22.5-11.8,45.5-26,68.9-37.1,11.1-5.3,22.9-8.9,34.3-13.7,3.4-.3,16.8,13.9,20.6,16.6,7.4,5.2,11.6-1.2,17-.9,1.8,0,2.9,2,4.4,2.5,3.3,1.1,9.9-.5,13.1-2,9.2-4.4,29.8-19.8,38.5-26.5,6.7-5.2,17.1-13.4,23-19,3.2-3,6.7-8.3,9.7-11.8,3.5,0,7.5,3.4,10.4,3.8,3,.4,8.9-1,13-1,16.3,0,27.3,2.6,41.7-8,20.3-14.9,24-38.9,7.2-58.9ZM488,489c-5-.2-1.8-8.7-1.9-12.5-.4-8.9-2.7-7.6-6.5-12.5-5.8-7.5-2.1-7-1.5-13.4,1.2-12.4-1-13.6-4.5-23.6-7.9-22.8-19.9-43.5-40.6-57.4-6.6-4.4-17.4-6-21.9-11.1-1.5-1.6-1.6-3.9-3.6-5.4-4.6-3.3-12.5-.8-16.4-6.6-.1-1.2,10.3-3.1,11.7-3.3,1.9-.2,3.7.9,5.7.8,1.2-.1,7.5-2.5,9-3.1,7.7-3.6,12.2-11.3,15.7-18.9,2-.1,3.1,1.5,4.6,2.4,16.8,10.9,28.1,12.7,47.5,17,6.3,1.4,10.4,6.1,17,4.1,1.3-.4,11.5-7.1,11.9-6.5-.9,1.5-1.7,7.2-2.2,7.8-.3.4-7.3,4.1-8.3,5.2-5.3,5.1-3.4,10.1-4.5,15.5-2.8,13.1-6,21.9-1.7,35.8,3.3,10.4,6.2,21,9.4,31.6.9,3,5.1,10.6,5.1,12.6,0,2.9-4.8,4.2-6.8,6.1-6.4,6.2-11.4,14-14.4,22.6-1.4,3.9-2.4,8.8-2.5,13ZM571,865l-14.6-36.9c-9.8-16.7-14.1-33.5-32.1-42.9-5-2.6-13.5-3-19.1-4.4l-4.2-16.3c3.8-1.9,7.3,1.4,10.6,2.4,10,3.2,26.5,6.6,36.9,5,7.8-1.2,17.3-11.3,22.6-16.9v110ZM691,548.5c-4,56.8-5.1,114-7.1,170.9-.4,12.3-.7,24.6-.9,36.9-8.9,5-18.7,7.9-27,14.2-13.8,10.5-17.7,27.8-32.9,37.1l-20.1,32.4v-143.5c.7-5.2,5.7-11.8,7.3-16.7,8.4-25.4,10.4-41.4,8.7-68.3-1.8-27.7-3.9-51.9-2-80.1.6-9.3,2.6-18.5,3-27.8,6.9-1.9,7.8-7.6,4.3-13.4-5.6-9.2-3.8-10.1-7-19-.7-2-4.1-5.3-3.8-6.3.7-2.9,7.7-11.1,9.6-14.4,7.7-13.1,16.9-26.2,23.9-39.1.9-1.7.8-4.2,1.6-5.4,1-1.5,3.3-1.2,4.5-2.7,3.1-3.7.9-9.3,2.4-12.3.4-.8,5.9-4.9,7.2-6.3,1.7-1.8,1-5.2,4.8-4.7,4.7,5.4,13.6,7.5,20.3,10.3,1.3,3.9,2.2,8,3.5,12,13.3,42.1,2.9,101.8-.3,146.3ZM942.5,767c-2.8,2.6-6.9,1.8-10.3.2-2-.9-3.3-3.5-5-4-.9-.3-12.4-1.2-13.8-1.2h-17.5c.5-5.2,4.3-8.9,6-13.5,2.5-6.8,4.7-18.8,6-26,1.3-7.6.9-19,3.1-25.9.4-1.3.6-2.7,2.4-2.6,5.9,17.2,16.8,32.7,31,44,1,6.1.5,12.3.5,18.5,0,4.6,2.5,5.9-2.5,10.5ZM1135.1,857.4c-5.8,1.4-11.9,2.1-17.8,3.4-6.5,1.4-14.3,4.1-20.9,5.1-3.3.5-7.7-.7-10.7.3-2.1.6-14.2,9-17.3,10.7-1.7.9-9.8,5-10.9,5.2-1.7.3-1.6.1-1.4-1.3.7-4.1,3.3-8.9,4.4-13.7,2.9-13.1,1.4-23.2,1.9-35.9.3-8.4-5-10.9-7.2-16.9-2.6-6.8,1.2-8.9-5.9-14.1-5.3-3.9-14.4-4.3-15.3-11.2,8.3.3,13.2,2.6,20.3,6.2,1.4.7,3.4.4,4.4,1,.3.2,4.5,5.4,4.7,5.8,1.8,3.3,3.1,10.3,5.2,13.8.6,1.1,3.5,5,4.3,5.7,4.2,3.4,7.7.4,11.1.4,3.1,0,6.8,0,10,0,2.5,0,5.1,2.6,9.6,0,2.7-1.5,7.8-11.7,8.5-15.1l26,3-2.9,47.4ZM1192.8,818.9c-4.1.4-7.1,5.3-10.9,6.6-2.4.8-10.3,1.4-13.4,1.6-2.1.1-1.3,0-1.5-1.5-.5-3.5.4-7.9,0-11.5h26l-.2,4.9Z"/>
</svg>