<svg xmlns="http://www.w3.org/2000/svg">
  <symbol id="icon-instagram" viewBox="0 0 24 24">
    <path fill-rule="evenodd" d="M12.315 2c2.43 0 2.784.013 3.808.06 1.064.049 1.791.218 2.427.465a4.902 4.902 0 011.772 1.153 4.902 4.902 0 011.153 1.772c.247.636.416 1.363.465 2.427.048 1.067.06 1.407.06 4.123v.08c0 2.643-.012 2.987-.06 4.043-.049 1.064-.218 1.791-.465 2.427a4.902 4.902 0 01-1.153 1.772 4.902 4.902 0 01-1.772 1.153c-.636.247-1.363.416-2.427.465-1.067.048-1.407.06-4.123.06h-.08c-2.643 0-2.987-.012-4.043-.06-1.064-.049-1.791-.218-2.427-.465a4.902 4.902 0 01-1.772-1.153 4.902 4.902 0 01-1.153-1.772c-.247-.636-.416-1.363-.465-2.427-.047-1.024-.06-1.379-.06-3.808v-.63c0-2.43.013-2.784.06-3.808.049-1.064.218-1.791.465-2.427a4.902 4.902 0 011.153-1.772A4.902 4.902 0 015.45 2.525c.636-.247 1.363-.416 2.427-.465C8.901 2.013 9.256 2 11.685 2h.63zm-.081 1.802h-.468c-2.456 0-2.784.011-3.807.058-.975.045-1.504.207-1.857.344-.467.182-.8.398-1.15.748-.35.35-.566.683-.748 1.15-.137.353-.3.882-.344 1.857-.047 1.023-.058 1.351-.058 3.807v.468c0 2.456.011 2.784.058 3.807.045.975.207 1.504.344 1.857.182.466.399.8.748 1.15.35.35.683.566 1.15.748.353.137.882.3 1.857.344 1.054.048 1.37.058 4.041.058h.08c2.597 0 2.917-.01 3.96-.058.976-.045 1.505-.207 1.858-.344.466-.182.8-.398 1.15-.748.35-.35.566-.683.748-1.15.137-.353.3-.882.344-1.857.048-1.055.058-1.37.058-4.041v-.08c0-2.597-.01-2.917-.058-3.96-.045-.976-.207-1.505-.344-1.858a3.097 3.097 0 00-.748-1.15 3.098 3.098 0 00-1.15-.748c-.353-.137-.882-.3-1.857-.344-1.023-.047-1.351-.058-3.807-.058zM12 6.865a5.135 5.135 0 110 10.27 5.135 5.135 0 010-10.27zm0 1.802a3.333 3.333 0 100 6.666 3.333 3.333 0 000-6.666zm5.338-3.205a1.2 1.2 0 110 2.4 1.2 1.2 0 010-2.4z" clip-rule="evenodd"/>
  </symbol>
  
  <symbol id="icon-twitter" viewBox="0 0 24 24">
    <path d="M8.29 20.251c7.547 0 11.675-6.253 11.675-11.675 0-.178 0-.355-.012-.53A8.348 8.348 0 0022 5.92a8.19 8.19 0 01-2.357.646 4.118 4.118 0 001.804-2.27 8.224 8.224 0 01-2.605.996 4.107 4.107 0 00-6.993 3.743 11.65 11.65 0 01-8.457-4.287 4.106 4.106 0 001.27 5.477A4.072 4.072 0 012.8 9.713v.052a4.105 4.105 0 003.292 4.022 4.095 4.095 0 01-1.853.07 4.108 4.108 0 003.834 2.85A8.233 8.233 0 012 18.407a11.616 11.616 0 006.29 1.84"/>
  </symbol>

  <symbol id="icon-facebook" viewBox="0 0 24 24">
    <path fill-rule="evenodd" d="M22 12c0-5.523-4.477-10-10-10S2 6.477 2 12c0 4.991 3.657 9.128 8.438 9.878v-6.987h-2.54V12h2.54V9.797c0-2.506 1.492-3.89 3.777-3.89 1.094 0 2.238.195 2.238.195v2.46h-1.26c-1.243 0-1.63.771-1.63 1.562V12h2.773l-.443 2.89h-2.33v6.988C18.343 21.128 22 16.991 22 12z" clip-rule="evenodd"/>
  </symbol>

  <symbol id="icon-youtube" viewBox="0 0 24 24">
    <path fill-rule="evenodd" d="M19.812 5.418c.861.23 1.538.907 1.768 1.768C21.998 8.746 22 12 22 12s0 3.255-.418 4.814a2.504 2.504 0 0 1-1.768 1.768c-1.56.419-7.814.419-7.814.419s-6.255 0-7.814-.419a2.505 2.505 0 0 1-1.768-1.768C2 15.255 2 12 2 12s0-3.255.418-4.814a2.507 2.507 0 0 1 1.768-1.768C5.746 5 11.998 5 11.998 5s6.255 0 7.814.418ZM15.194 12 10 15V9l5.194 3Z" clip-rule="evenodd"/>
  </symbol>

  <symbol id="icon-shazam" viewBox="0 0 24 24">
    <path fill-rule="evenodd" d="M12 0C5.373 0 0 5.373 0 12s5.373 12 12 12 12-5.373 12-12S18.627 0 12 0zm5.466 15.257a.5.5 0 0 1-.707 0L12 10.5l-4.759 4.757a.5.5 0 0 1-.707-.707L11.293 9.79a.5.5 0 0 1 .707 0l4.76 4.76a.5.5 0 0 1 0 .707zm0-6.514a.5.5 0 0 1-.707 0L12 3.986l-4.759 4.757a.5.5 0 1 1-.707-.707l4.76-4.76a.5.5 0 0 1 .707 0l4.76 4.76a.5.5 0 0 1 0 .707z" clip-rule="evenodd"/>
  </symbol>

  <symbol id="icon-spotify" viewBox="0 0 24 24">
    <path fill-rule="evenodd" d="M12 0C5.4 0 0 5.4 0 12s5.4 12 12 12 12-5.4 12-12S18.66 0 12 0zm5.521 17.34c-.24.371-.721.53-1.07.29-3.179-1.94-7.17-2.38-11.881-1.31-.459.101-.91-.21-1.02-.67-.101-.46.21-.91.67-1.02 5.151-1.19 9.561-.67 13.091 1.52.361.22.49.721.27 1.091zm1.47-3.27c-.301.459-.921.67-1.381.37-3.639-2.24-9.18-2.89-13.481-1.58-.539.15-1.11-.15-1.26-.69-.15-.54.15-1.11.69-1.26 4.901-1.49 11.021-.8 15.21 1.78.45.301.67.91.37 1.381zm.129-3.401c-4.371-2.59-11.561-2.84-15.721-1.57-.659.19-1.361-.21-1.54-.87-.19-.66.21-1.361.87-1.54 4.81-1.461 12.81-1.18 17.851 1.82.59.35.779 1.11.419 1.711-.349.51-1.119.7-1.709.35z" clip-rule="evenodd"/>
  </symbol>
</svg>
